<?xml version="1.0" encoding="utf-8"?>
<!-- Generator: Adobe Illustrator 26.3.1, SVG Export Plug-In . SVG Version: 6.00 Build 0)  -->
<svg version="1.1" id="Vrstva_1" xmlns="http://www.w3.org/2000/svg" xmlns:xlink="http://www.w3.org/1999/xlink" x="0px" y="0px"
	 viewBox="0 0 595.28 841.89" style="enable-background:new 0 0 595.28 841.89;" xml:space="preserve">
<style type="text/css">
	.st0{fill:#1D1D1B;stroke:#000000;stroke-miterlimit:10;}
	.st1{fill:#6D6D6C;}
	.st2{fill:none;stroke:#1D1D1B;stroke-miterlimit:10;}
</style>
<g>
	<rect x="283.66" y="408.04" class="st0" width="27.96" height="84.64"/>
	<rect x="283.66" y="386.21" class="st0" width="27.96" height="18.77"/>
	<rect x="283.66" y="371.65" class="st0" width="27.96" height="9.19"/>
	<rect x="288.25" y="365.53" class="st0" width="17.62" height="2.3"/>
	<rect x="292.85" y="348.68" class="st0" width="9.96" height="13.02"/>
	<rect x="283.66" y="496.89" class="st0" width="27.96" height="3.83"/>
	<g>
		<path class="st1" d="M268.24,406.7c-12.88-15.72-28.86-31.89-49.86-34.25c-6.51-0.78-12.94,0.45-19.99,1.96
			c-14.77,3.51-30.33,2.41-44.03-4.29c-13.3-6.36-24.45-16.31-33.34-27.83c5.63,4.49,11.27,8.85,17.23,12.6
			c11.48,7.33,24.67,13.02,38.35,13.68c20.09,1.15,32.41-9.33,53.85-0.61C247.73,374.86,260.26,390.4,268.24,406.7L268.24,406.7z"/>
	</g>
	<g>
		<path class="st1" d="M175.15,404.97c-20.85-0.28-39.54-17.88-45.55-37.15c3.62,3.71,6.94,7.42,10.39,10.95
			C150.27,389.55,161.69,398.37,175.15,404.97L175.15,404.97z"/>
	</g>
	<g>
		<path class="st1" d="M263.49,450.36c-8.21,23.66-34.41,36.63-58.23,37.91c-14.46,0.75-29.48-2.41-41.86-9.8
			c18.29,3.57,36.52,4.31,54.5-0.13C235.64,473.92,251.88,465.05,263.49,450.36L263.49,450.36z"/>
	</g>
	<g>
		<path class="st1" d="M180.67,434.92c-19.18,7.24-39.96-9.57-43.82-28.22c3.21,3.56,6.19,7,9.35,10.17
			C155.59,426.58,167.02,433.32,180.67,434.92L180.67,434.92z"/>
	</g>
	<g>
		<path class="st1" d="M222.13,399.48c-10.03,18.34-35.66,25.69-54.27,16.7C188.18,417.57,206.36,412.6,222.13,399.48L222.13,399.48
			z"/>
	</g>
	<g>
		<path class="st1" d="M190.98,438.44c20.15,0.95,38.46-5.25,52.08-20.46C235.83,437.86,209.78,447.13,190.98,438.44L190.98,438.44z
			"/>
	</g>
	<g>
		<path class="st1" d="M182.3,447.73c-2.31,5.95-6.63,10.99-12.28,14.21c-13.04,7.39-27.7-0.31-34.59-12.3
			c-3.2-5.47-5.3-11.41-5.82-17.59c6.17,8.22,11.54,16.32,20.05,21.73C161.13,461.16,172.19,455.59,182.3,447.73L182.3,447.73z"/>
	</g>
	<path class="st2" d="M245.72,469.38"/>
	<g>
		<path class="st1" d="M327.03,405.58c7.98-16.29,20.51-31.84,37.79-38.73c21.44-8.72,33.75,1.77,53.85,0.62
			c13.67-0.67,26.86-6.35,38.35-13.68c5.97-3.76,11.6-8.12,17.23-12.6c-8.89,11.52-20.04,21.46-33.34,27.83
			c-13.72,6.7-29.26,7.8-44.03,4.29c-7.05-1.51-13.48-2.75-19.99-1.96C355.89,373.69,339.92,389.85,327.03,405.58L327.03,405.58z"/>
	</g>
	<g>
		<path class="st1" d="M420.13,403.85c9.01-4.54,17.05-9.64,24.55-16.16c7.59-6.42,13.99-13.72,20.99-20.99
			C459.67,385.97,440.98,403.58,420.13,403.85L420.13,403.85z"/>
	</g>
	<g>
		<path class="st1" d="M331.79,449.24c11.61,14.69,27.85,23.56,45.58,27.97c17.98,4.44,36.21,3.7,54.5,0.13
			c-12.37,7.39-27.4,10.55-41.86,9.8C366.2,485.87,340,472.89,331.79,449.24L331.79,449.24z"/>
	</g>
	<g>
		<path class="st1" d="M414.61,433.8c13.65-1.6,25.08-8.34,34.46-18.05c3.16-3.17,6.14-6.62,9.35-10.17
			C454.58,424.22,433.78,441.04,414.61,433.8L414.61,433.8z"/>
	</g>
	<g>
		<path class="st1" d="M373.15,398.36c15.77,13.12,33.96,18.08,54.28,16.7C408.81,424.06,383.17,416.7,373.15,398.36L373.15,398.36z
			"/>
	</g>
	<g>
		<path class="st1" d="M404.3,437.32c-18.8,8.69-44.85-0.58-52.09-20.46C365.84,432.07,384.15,438.27,404.3,437.32L404.3,437.32z"/>
	</g>
	<g>
		<path class="st1" d="M412.98,446.61c10.11,7.86,21.17,13.42,32.65,6.04c8.51-5.42,13.87-13.51,20.05-21.73
			c-0.52,6.18-2.63,12.12-5.82,17.6c-6.89,11.99-21.55,19.7-34.59,12.3C419.61,457.6,415.29,452.56,412.98,446.61L412.98,446.61z"/>
	</g>
</g>
</svg>
